<?xml version="1.0" standalone="no"?>
<!DOCTYPE svg PUBLIC "-//W3C//DTD SVG 20010904//EN"
 "http://www.w3.org/TR/2001/REC-SVG-20010904/DTD/svg10.dtd">
<svg version="1.0" xmlns="http://www.w3.org/2000/svg"
 width="236.000000pt" height="236.000000pt" viewBox="0 0 236.000000 236.000000"
 preserveAspectRatio="xMidYMid meet">
<metadata>
Created by potrace 1.11, written by Peter Selinger 2001-2013
</metadata>
<g transform="translate(0.000000,236.000000) scale(0.100000,-0.100000)"
fill="#000000" stroke="none">
<path d="M980 2102 c-171 -48 -284 -106 -396 -201 -155 -132 -265 -302 -316
-486 -18 -67 -22 -106 -22 -245 0 -151 2 -172 27 -253 50 -162 125 -287 246
-408 180 -179 377 -266 627 -276 140 -6 237 7 359 49 267 91 489 315 581 585
58 171 69 324 35 488 -39 191 -122 346 -256 481 -130 132 -270 213 -437 255
-121 30 -359 36 -448 11z m315 -52 c103 -15 105 -16 105 -57 l0 -35 -62 9
c-80 10 -226 10 -300 0 l-58 -8 0 36 c0 41 3 43 91 54 91 12 144 12 224 1z
m-554 -166 c22 -24 23 -26 6 -35 -67 -38 -166 -139 -236 -242 l-33 -49 -29 28
c-28 27 -28 27 -11 56 49 85 232 268 267 268 6 0 22 -12 36 -26z m998 -20 c68
-51 127 -114 179 -192 l35 -52 -23 -25 c-13 -14 -26 -25 -29 -25 -3 0 -33 36
-66 81 -53 73 -128 145 -195 190 l-25 17 24 26 c14 14 28 26 32 26 4 0 34 -21
68 -46z m-361 -35 c87 -27 183 -79 252 -138 l54 -46 -165 -5 c-161 -5 -166 -6
-230 -37 -79 -39 -141 -102 -177 -181 -23 -51 -27 -73 -32 -217 -6 -172 -12
-195 -67 -247 -40 -38 -94 -58 -158 -58 -87 0 -153 -35 -195 -103 l-18 -29
-25 44 c-130 221 -140 443 -30 668 95 194 288 336 503 370 77 12 210 2 288
-21z m417 -354 c50 -100 68 -183 68 -300 0 -306 -184 -556 -481 -653 -90 -29
-250 -35 -342 -13 -83 20 -229 94 -285 145 l-50 45 111 1 c61 0 137 5 169 11
120 22 218 97 272 207 26 53 28 67 33 218 5 157 6 162 35 210 42 67 113 104
202 104 89 0 155 36 190 104 15 29 16 29 30 10 8 -10 30 -50 48 -89z m266
-150 c11 -50 10 -245 -2 -311 l-11 -62 -40 -4 -40 -4 7 41 c20 129 24 196 15
265 -15 116 -16 112 27 108 33 -3 39 -7 44 -33z m-1668 -12 c-4 -16 -7 -80 -7
-143 1 -100 6 -138 30 -223 5 -16 0 -18 -37 -15 l-44 3 -13 55 c-15 64 -20
258 -9 313 8 35 10 37 48 37 38 0 39 -1 32 -27z m1525 -637 c-64 -93 -183
-207 -256 -245 -21 -11 -27 -10 -48 10 -13 12 -24 26 -24 29 0 4 25 24 55 44
67 44 160 135 205 200 l32 48 29 -28 28 -27 -21 -31z m-1287 -77 c31 -31 83
-74 115 -95 32 -21 61 -40 63 -41 3 -2 -7 -16 -22 -30 -22 -22 -30 -25 -49
-16 -66 30 -218 167 -265 240 -14 21 -13 25 9 52 l23 30 35 -42 c19 -23 60
-67 91 -98z m779 -238 c0 -46 2 -45 -120 -61 -77 -11 -173 -8 -257 7 -31 5
-33 8 -33 45 0 39 1 40 28 34 67 -15 229 -17 297 -3 39 8 73 15 78 16 4 0 7
-17 7 -38z"/>
<path d="M1095 1824 c-155 -25 -261 -80 -376 -194 -94 -94 -145 -178 -174
-290 -23 -84 -23 -243 -1 -328 18 -71 75 -192 93 -199 6 -3 28 13 47 35 20 22
51 45 69 53 17 7 33 13 35 14 1 1 -9 26 -23 56 -58 127 -55 288 6 417 42 88
134 179 224 223 68 33 73 34 210 36 218 4 415 15 415 22 0 18 -150 103 -223
126 -81 26 -231 40 -302 29z"/>
<path d="M1692 1500 c-17 -21 -48 -44 -67 -51 -19 -7 -35 -16 -35 -20 0 -4 11
-31 25 -60 93 -205 24 -456 -164 -590 -84 -61 -163 -81 -301 -78 -63 1 -144
-3 -180 -9 -36 -7 -99 -12 -140 -12 l-75 -1 30 -25 c58 -48 186 -104 275 -120
96 -18 221 -13 310 11 164 44 341 187 413 335 57 116 70 183 65 325 -4 96 -10
133 -30 188 -26 68 -72 147 -86 147 -4 0 -22 -18 -40 -40z"/>
</g>
</svg>
