<?xml version="1.0" encoding="UTF-8" standalone="no"?>
<svg width="461px" height="456px" viewBox="0 0 461 456" version="1.1" xmlns="http://www.w3.org/2000/svg" xmlns:xlink="http://www.w3.org/1999/xlink">
    <!-- Generator: Sketch 3.7.2 (28276) - http://www.bohemiancoding.com/sketch -->
    <title>shutterstock_162449681</title>
    <desc>Created with Sketch.</desc>
    <defs>
        <polygon id="path-1" points="460.999 455.94 0 455.94 0 227.9705 0 0.001 460.999 0.001 460.999 455.94"></polygon>
    </defs>
    <g id="Page-1" stroke="none" stroke-width="1" fill="none" fill-rule="evenodd">
        <g id="shutterstock_162449681">
            <g id="Group-3">
                <mask id="mask-2" fill="white">
                    <use xlink:href="#path-1"></use>
                </mask>
                <g id="Clip-2"></g>
                <path d="M460.999,228.001 C460.999,353.922 357.802,456 230.5,456 C103.199,456 0,353.922 0,228.001 C0,102.08 103.199,0.001 230.5,0.001 C357.802,0.001 460.999,102.08 460.999,228.001" id="Fill-1" fill="#B5252C" mask="url(#mask-2)"></path>
            </g>
            <path d="M166.244,395.113 L117.194,366.076 C114.167,364.283 110.118,365.527 108.148,368.855 L86.258,405.83 C104.387,420.236 124.758,431.99 146.781,440.486 L168.156,404.381 C170.126,401.055 169.27,396.904 166.244,395.113" id="Fill-4" fill="#E8E7DB"></path>
            <path d="M2.637,262.586 L46.339,262.926 C50.205,262.956 53.361,260.131 53.389,256.613 L53.831,199.615 C53.858,196.099 50.747,193.224 46.88,193.192 L2.728,192.85 C0.935,204.308 0,216.046 0,228.001 C0,239.758 0.901,251.309 2.637,262.586" id="Fill-5" fill="#E8E7DB"></path>
            <path d="M107.564,85.171 C109.387,88.58 113.378,90.001 116.48,88.343 L166.747,61.467 C169.849,59.81 170.885,55.702 169.063,52.292 L148.962,14.694 C126.845,22.972 106.345,34.503 88.078,48.722 L107.564,85.171" id="Fill-6" fill="#E8E7DB"></path>
            <path d="M312.779,14.974 L291.531,51.515 C289.587,54.857 290.476,59 293.517,60.768 L342.794,89.418 C345.833,91.187 349.875,89.909 351.818,86.567 L373.537,49.211 C355.318,34.93 334.863,23.324 312.779,14.974" id="Fill-7" fill="#E8E7DB"></path>
            <path d="M458.105,191.849 L413.695,192.169 C409.83,192.197 406.714,195.07 406.74,198.587 L407.154,255.588 C407.179,259.104 410.333,261.932 414.199,261.903 L458.505,261.582 C460.142,250.621 461,239.41 461,228.001 C461,215.696 460.001,203.624 458.105,191.849" id="Fill-8" fill="#E8E7DB"></path>
            <path d="M230.828,80.974 C148.387,80.974 81.317,147.381 81.317,229.006 C81.317,310.631 148.387,377.039 230.828,377.039 C313.269,377.039 377.664,310.992 377.664,229.367 C377.664,147.742 313.269,80.974 230.828,80.974 L230.828,80.974 Z M230.828,382.012 C145.639,382.012 76.333,313.373 76.333,229.006 C76.333,144.639 145.639,76.001 230.828,76.001 C316.017,76.001 386.771,144.521 386.771,228.888 C386.771,313.256 316.017,382.012 230.828,382.012 L230.828,382.012 Z" id="Fill-9" fill="#8D2326"></path>
            <path d="M353.931,370.647 C352.105,367.24 348.111,365.824 345.013,367.486 L294.777,394.424 C291.677,396.084 290.646,400.193 292.472,403.6 L312.582,441.102 C334.677,432.77 355.144,421.184 373.378,406.916 L353.931,370.647" id="Fill-10" fill="#E8E7DB"></path>
            <path d="M77.497,232.162 C77.497,146.466 146.967,76.995 232.662,76.995 C317.916,76.995 387.095,145.748 387.814,230.829 C387.818,230.384 387.83,229.941 387.83,229.495 C387.83,143.063 317.763,72.995 231.329,72.995 C144.897,72.995 74.83,143.063 74.83,229.495 C74.83,281.244 99.953,327.119 138.66,355.609 C101.49,327.262 77.497,282.516 77.497,232.162" id="Fill-11" fill="#671B1E"></path>
            <path d="M374.095,210.851 C382.611,292.57 324.074,365.633 243.349,374.045 C163.042,382.412 91.046,323.641 81.916,242.579 C81.956,243.002 81.989,243.426 82.033,243.852 C90.621,326.272 163.583,386.211 245.001,377.729 C326.419,369.246 385.46,295.553 376.875,213.132 C371.732,163.785 343.509,122.506 304.216,99.137 C342.046,122.521 369.093,162.835 374.095,210.851" id="Fill-12" fill="#581719"></path>
            <polygon id="Fill-13" fill="#E8E7DB" points="211.496 83.828 246.83 83.828 246.83 78.495 211.496 78.495"></polygon>
            <polyline id="Fill-14" fill="#E8E7DB" points="318.808 111.328 288.867 92.568 291.699 88.049 321.638 106.809 318.808 111.328"></polyline>
            <polyline id="Fill-15" fill="#E8E7DB" points="367.355 171.522 350.445 140.499 355.128 137.946 372.039 168.969 367.355 171.522"></polyline>
            <polyline id="Fill-16" fill="#E8E7DB" points="377.363 244.689 378.966 209.393 384.294 209.635 382.691 244.931 377.363 244.689"></polyline>
            <polyline id="Fill-17" fill="#E8E7DB" points="350.394 317.492 367.14 286.377 371.835 288.904 355.091 320.018 350.394 317.492"></polyline>
            <polyline id="Fill-18" fill="#E8E7DB" points="289.062 368.418 319.183 349.945 321.97 354.492 291.851 372.965 289.062 368.418"></polyline>
            <polyline id="Fill-19" fill="#E8E7DB" points="211.781 377.611 247.115 377.355 247.152 382.688 211.82 382.945 211.781 377.611"></polyline>
            <polyline id="Fill-20" fill="#E8E7DB" points="140.989 347.863 171.389 365.873 168.668 370.461 138.271 352.451 140.989 347.863"></polyline>
            <polyline id="Fill-21" fill="#E8E7DB" points="93.974 285.725 112.274 315.951 107.711 318.711 89.412 288.486 93.974 285.725"></polyline>
            <polyline id="Fill-22" fill="#E8E7DB" points="85.556 210.447 84.585 245.768 79.253 245.619 80.225 210.302 85.556 210.447"></polyline>
            <polyline id="Fill-23" fill="#E8E7DB" points="114.278 140.111 95.939 170.314 91.38 167.543 109.719 137.344 114.278 140.111"></polyline>
            <polyline id="Fill-24" fill="#E8E7DB" points="172.757 94.54 142.261 112.386 139.569 107.781 170.063 89.938 172.757 94.54"></polyline>
            <path d="M213.599,401.5 C210.42,401.5 207.834,404.084 207.834,407.258 L207.834,440.41 C207.834,443.584 210.42,446.168 213.599,446.168 L248.07,446.168 C251.248,446.168 253.833,443.584 253.833,440.41 L253.833,407.258 C253.833,404.084 251.248,401.5 248.07,401.5 L213.599,401.5 L213.599,401.5 Z M248.07,448.168 L213.599,448.168 C209.317,448.168 205.834,444.688 205.834,440.41 L205.834,407.258 C205.834,402.98 209.317,399.5 213.599,399.5 L248.07,399.5 C252.351,399.5 255.833,402.98 255.833,407.258 L255.833,440.41 C255.833,444.688 252.351,448.168 248.07,448.168 L248.07,448.168 Z" id="Fill-25" fill="#C13B2B"></path>
            <path d="M247.167,446.834 L247.167,447.119 C247.167,450.455 244.582,453.168 241.402,453.168 L206.932,453.168 C203.753,453.168 201.167,450.455 201.167,447.119 L201.167,412.549 C201.167,409.367 203.523,406.756 206.5,406.523 L206.5,404.523 C202.42,404.758 199.167,408.262 199.167,412.549 L199.167,447.119 C199.167,451.557 202.65,455.168 206.932,455.168 L241.402,455.168 C245.683,455.168 249.167,451.557 249.167,447.119 L249.167,446.834 L247.167,446.834" id="Fill-26" fill="#C13B2B"></path>
            <path d="M213.599,399.5 C210.42,399.5 207.834,402.084 207.834,405.258 L207.834,438.41 C207.834,441.584 210.42,444.168 213.599,444.168 L248.07,444.168 C251.248,444.168 253.833,441.584 253.833,438.41 L253.833,405.258 C253.833,402.084 251.248,399.5 248.07,399.5 L213.599,399.5 L213.599,399.5 Z M248.07,446.168 L213.599,446.168 C209.317,446.168 205.834,442.688 205.834,438.41 L205.834,405.258 C205.834,400.98 209.317,397.5 213.599,397.5 L248.07,397.5 C252.351,397.5 255.833,400.98 255.833,405.258 L255.833,438.41 C255.833,442.688 252.351,446.168 248.07,446.168 L248.07,446.168 Z" id="Fill-27" fill="#A2262A"></path>
            <path d="M247.167,444.834 L247.167,445.119 C247.167,448.455 244.582,451.168 241.402,451.168 L206.932,451.168 C203.753,451.168 201.167,448.455 201.167,445.119 L201.167,410.549 C201.167,407.367 203.523,404.756 206.5,404.523 L206.5,402.523 C202.42,402.758 199.167,406.262 199.167,410.549 L199.167,445.119 C199.167,449.557 202.65,453.168 206.932,453.168 L241.402,453.168 C245.683,453.168 249.167,449.557 249.167,445.119 L249.167,444.834 L247.167,444.834" id="Fill-28" fill="#A2262A"></path>
            <path d="M57.729,357.873 C55.257,357.873 52.952,356.696 51.499,354.747 C51.797,354.624 52.092,354.483 52.381,354.322 L52.631,354.184 L51.661,352.434 L51.412,352.572 C51.099,352.746 50.778,352.889 50.453,353.005 L34.219,323.723 C32.144,319.979 33.498,315.244 37.239,313.17 L66.232,297.094 C66.421,296.989 66.614,296.893 66.811,296.805 C66.949,296.968 67.078,297.141 67.198,297.322 L68.948,296.352 C68.917,296.302 68.885,296.254 68.853,296.205 C69.227,296.15 69.606,296.121 69.985,296.121 C72.809,296.121 75.414,297.656 76.782,300.125 L93.496,330.272 C94.502,332.086 94.742,334.184 94.171,336.176 C93.601,338.17 92.288,339.82 90.476,340.824 L61.482,356.898 C60.333,357.535 59.036,357.873 57.729,357.873 M69.985,298.121 C69.017,298.121 68.055,298.371 67.202,298.844 L38.208,314.918 C35.433,316.457 34.427,319.973 35.968,322.754 L52.682,352.9 C53.698,354.734 55.632,355.873 57.729,355.873 C58.697,355.873 59.66,355.623 60.513,355.148 L89.506,339.074 C90.852,338.33 91.825,337.105 92.248,335.625 C92.672,334.147 92.494,332.59 91.747,331.24 L75.033,301.096 C74.017,299.262 72.082,298.121 69.985,298.121" id="Fill-29" fill="#BB322B"></path>
            <path d="M48.388,355.362 C45.622,355.362 42.974,353.951 41.578,351.434 L24.865,321.285 C22.789,317.541 24.257,312.742 28.138,310.592 L58.373,293.83 C59.643,293.126 61.015,292.792 62.359,292.792 C64.928,292.792 67.395,294.012 68.853,296.205 C68.885,296.254 68.917,296.302 68.948,296.352 L67.198,297.322 C67.078,297.141 66.949,296.968 66.811,296.805 C65.711,295.503 64.072,294.79 62.366,294.79 C61.348,294.79 60.307,295.044 59.343,295.578 L29.108,312.342 C26.19,313.959 25.072,317.537 26.613,320.316 L43.328,350.463 C44.359,352.322 46.323,353.362 48.384,353.362 C49.073,353.362 49.773,353.246 50.453,353.005 C50.778,352.889 51.099,352.746 51.412,352.572 L51.661,352.434 L52.631,354.184 L52.381,354.322 C52.092,354.483 51.797,354.624 51.499,354.747 C50.486,355.162 49.428,355.362 48.388,355.362" id="Fill-30" fill="#BB322B"></path>
            <path d="M68.985,296.121 C68.017,296.121 67.055,296.371 66.202,296.844 L37.208,312.918 C34.433,314.457 33.427,317.973 34.968,320.754 L51.682,350.9 C52.698,352.734 54.632,353.873 56.729,353.873 C57.697,353.873 58.66,353.623 59.513,353.148 L88.506,337.074 C89.852,336.33 90.825,335.105 91.248,333.625 C91.672,332.147 91.494,330.59 90.747,329.24 L74.033,299.096 C73.017,297.262 71.082,296.121 68.985,296.121 L68.985,296.121 Z M56.729,355.873 C53.906,355.873 51.302,354.338 49.933,351.871 L33.219,321.723 C31.144,317.979 32.498,313.244 36.239,311.17 L65.232,295.094 C66.381,294.459 67.679,294.121 68.985,294.121 C71.809,294.121 74.414,295.656 75.782,298.125 L92.496,328.272 C93.502,330.086 93.742,332.184 93.171,334.176 C92.601,336.17 91.289,337.82 89.476,338.824 L60.482,354.898 C59.333,355.535 58.036,355.873 56.729,355.873 L56.729,355.873 Z" id="Fill-31" fill="#A2262A"></path>
            <path d="M50.661,350.434 L50.412,350.572 C47.495,352.189 43.869,351.242 42.328,348.463 L25.613,318.316 C24.072,315.537 25.19,311.959 28.108,310.342 L58.343,293.578 C61.126,292.035 64.551,292.83 66.198,295.322 L67.948,294.352 C65.765,290.897 61.122,289.752 57.374,291.83 L27.138,308.592 C23.257,310.742 21.789,315.541 23.865,319.285 L40.578,349.434 C42.654,353.178 47.501,354.475 51.381,352.322 L51.631,352.184 L50.661,350.434" id="Fill-32" fill="#A2262A"></path>
            <path d="M68.682,164.564 C67.256,164.564 65.856,164.168 64.636,163.419 L36.374,146.091 C34.608,145.008 33.369,143.301 32.886,141.284 C32.486,139.61 32.646,137.889 33.333,136.34 C33.587,136.54 33.856,136.727 34.138,136.9 L34.382,137.049 L35.427,135.344 L35.184,135.195 C34.879,135.008 34.597,134.8 34.336,134.573 L51.837,106.03 C53.262,103.708 55.739,102.321 58.465,102.321 C59.891,102.321 61.29,102.717 62.511,103.465 L90.772,120.794 C90.958,120.908 91.137,121.028 91.309,121.155 C91.235,121.355 91.148,121.553 91.049,121.747 L92.756,122.792 C92.783,122.741 92.81,122.69 92.836,122.639 C94.762,125.118 95.063,128.637 93.327,131.469 L75.309,160.855 C73.884,163.178 71.406,164.564 68.682,164.564 M58.465,104.321 C56.44,104.321 54.6,105.351 53.542,107.076 L35.524,136.462 C34.719,137.774 34.473,139.322 34.831,140.818 C35.189,142.315 36.109,143.582 37.42,144.386 L65.682,161.714 C66.588,162.271 67.626,162.564 68.682,162.564 C70.706,162.564 72.545,161.534 73.604,159.81 L91.622,130.424 C93.283,127.714 92.433,124.159 89.727,122.499 L61.465,105.17 C60.559,104.614 59.521,104.321 58.465,104.321" id="Fill-33" fill="#BB312B"></path>
            <path d="M34.382,137.049 L34.138,136.9 C33.856,136.727 33.587,136.54 33.333,136.34 C30.187,133.862 29.266,129.451 31.336,126.073 L49.355,96.689 C50.796,94.339 53.338,93.053 55.976,93.053 C57.436,93.053 58.927,93.447 60.275,94.274 L89.747,112.346 C93.35,114.555 94.652,119.062 92.836,122.639 C92.81,122.69 92.783,122.741 92.756,122.792 L91.049,121.747 C91.148,121.553 91.235,121.355 91.309,121.155 C92.254,118.604 91.217,115.593 88.702,114.051 L59.23,95.98 C58.206,95.352 57.076,95.052 55.971,95.052 C54.007,95.052 52.123,95.999 51.06,97.733 L33.042,127.12 C31.559,129.539 32.166,132.685 34.336,134.573 C34.597,134.8 34.879,135.008 35.184,135.195 L35.427,135.344 L34.382,137.049" id="Fill-34" fill="#BB312B"></path>
            <path d="M58.465,102.321 C56.44,102.321 54.6,103.351 53.542,105.076 L35.524,134.462 C34.719,135.774 34.473,137.322 34.831,138.818 C35.189,140.315 36.109,141.582 37.42,142.386 L65.682,159.714 C66.588,160.271 67.626,160.564 68.682,160.564 C70.706,160.564 72.545,159.534 73.604,157.81 L91.622,128.424 C93.283,125.714 92.433,122.159 89.727,120.499 L61.465,103.17 C60.559,102.614 59.521,102.321 58.465,102.321 L58.465,102.321 Z M68.682,162.564 C67.256,162.564 65.856,162.168 64.636,161.419 L36.374,144.091 C34.608,143.008 33.369,141.301 32.886,139.284 C32.404,137.269 32.735,135.185 33.819,133.416 L51.837,104.03 C53.262,101.708 55.739,100.321 58.465,100.321 C59.891,100.321 61.29,100.717 62.511,101.465 L90.772,118.794 C94.418,121.031 95.564,125.819 93.327,129.469 L75.309,158.855 C73.884,161.178 71.406,162.564 68.682,162.564 L68.682,162.564 Z" id="Fill-35" fill="#A2262A"></path>
            <path d="M35.427,133.344 L35.184,133.195 C32.342,131.451 31.38,127.829 33.042,125.12 L51.06,95.732 C52.721,93.023 56.386,92.236 59.23,93.979 L88.702,112.051 C91.415,113.714 92.408,117.087 91.049,119.747 L92.756,120.792 C94.689,117.191 93.401,112.587 89.747,110.346 L60.275,92.274 C56.493,89.954 51.593,91.037 49.355,94.689 L31.336,124.073 C29.099,127.724 30.355,132.581 34.138,134.9 L34.382,135.049 L35.427,133.344" id="Fill-36" fill="#A2262A"></path>
            <path d="M213.858,61.177 C209.592,61.177 206.108,57.712 206.091,53.452 L205.945,20.302 C205.928,16.377 208.846,13.11 212.634,12.584 C212.598,12.905 212.58,13.231 212.581,13.562 L212.583,13.848 L214.583,13.839 L214.581,13.554 C214.58,13.197 214.608,12.846 214.664,12.505 L248.144,12.357 C252.443,12.357 255.927,15.822 255.945,20.082 L256.091,53.232 C256.092,53.451 256.084,53.666 256.067,53.88 C255.858,53.922 255.644,53.953 255.427,53.971 L255.437,55.971 C255.494,55.967 255.551,55.963 255.608,55.958 C254.514,58.902 251.682,61.01 248.359,61.024 L213.858,61.177 M248.179,14.357 L213.684,14.51 C210.505,14.523 207.931,17.118 207.945,20.293 L208.091,53.444 C208.104,56.605 210.69,59.177 213.858,59.177 L213.858,60.177 L213.882,59.177 L248.351,59.024 C251.529,59.011 254.103,56.416 254.091,53.24 L253.945,20.091 C253.931,16.93 251.343,14.357 248.179,14.357" id="Fill-37" fill="#BC332B"></path>
            <path d="M255.437,55.971 L255.427,53.971 C255.644,53.953 255.858,53.922 256.067,53.88 C258.733,53.34 260.748,50.873 260.734,47.923 L260.582,13.352 C260.566,10.025 257.982,7.329 254.814,7.329 L254.789,7.329 L220.319,7.481 C217.482,7.493 215.126,9.666 214.664,12.505 C214.608,12.846 214.58,13.197 214.581,13.554 L214.583,13.839 L212.583,13.848 L212.581,13.562 C212.58,13.231 212.598,12.905 212.634,12.584 C213.083,8.604 216.349,5.498 220.311,5.48 L254.781,5.329 L254.815,5.329 C259.081,5.329 262.564,8.917 262.582,13.342 L262.734,47.913 C262.753,52.14 259.605,55.619 255.608,55.958 C255.551,55.963 255.494,55.967 255.437,55.971" id="Fill-38" fill="#BC332B"></path>
            <path d="M248.179,12.357 L213.684,12.51 C210.505,12.523 207.931,15.118 207.945,18.293 L208.091,51.444 C208.104,54.605 210.69,57.177 213.858,57.177 L213.858,58.177 L213.882,57.177 L248.351,57.024 C251.529,57.011 254.103,54.416 254.091,51.24 L253.945,18.091 C253.931,14.93 251.343,12.357 248.179,12.357 L248.179,12.357 Z M213.858,59.177 C209.592,59.177 206.108,55.712 206.091,51.452 L205.945,18.302 C205.926,14.024 209.394,10.528 213.675,10.51 L248.144,10.357 C252.443,10.357 255.927,13.822 255.945,18.082 L256.091,51.232 C256.107,55.511 252.64,59.006 248.359,59.024 L213.858,59.177 L213.858,59.177 Z" id="Fill-39" fill="#A2262A"></path>
            <path d="M214.583,11.839 L214.582,11.554 C214.568,8.219 217.142,5.494 220.319,5.481 L254.789,5.329 C257.968,5.314 260.566,8.016 260.582,11.352 L260.734,45.923 C260.75,49.104 258.404,51.725 255.427,51.971 L255.437,53.971 C259.515,53.718 262.753,50.2 262.734,45.913 L262.582,11.342 C262.564,6.905 259.062,3.31 254.781,3.329 L220.311,3.48 C216.029,3.499 212.562,7.125 212.582,11.562 L212.583,11.848 L214.583,11.839" id="Fill-40" fill="#A2262A"></path>
            <path d="M393.005,165.547 C390.277,165.547 387.716,164.091 386.324,161.746 L368.712,132.115 C367.654,130.331 367.351,128.242 367.861,126.233 C368.371,124.224 369.632,122.534 371.415,121.477 L399.912,104.539 C401.111,103.827 402.48,103.45 403.869,103.45 C406.245,103.45 408.495,104.556 409.955,106.392 C409.661,106.523 409.371,106.673 409.087,106.842 L408.843,106.988 L409.863,108.706 L410.109,108.562 C410.416,108.379 410.732,108.226 411.054,108.101 L428.158,136.882 C430.345,140.563 429.134,145.337 425.458,147.522 L396.96,164.459 C396.774,164.57 396.583,164.672 396.389,164.767 C396.246,164.607 396.111,164.439 395.986,164.261 L394.267,165.283 C394.299,165.331 394.332,165.379 394.366,165.426 C393.918,165.506 393.463,165.547 393.005,165.547 M403.869,105.45 C402.839,105.45 401.824,105.73 400.933,106.259 L372.437,123.196 C371.115,123.98 370.177,125.234 369.798,126.726 C369.419,128.217 369.646,129.769 370.431,131.094 L388.042,160.725 C389.078,162.466 390.98,163.547 393.005,163.547 C394.035,163.547 395.048,163.268 395.939,162.739 L424.437,145.803 C427.166,144.181 428.064,140.637 426.439,137.903 L408.83,108.273 C407.794,106.531 405.894,105.45 403.869,105.45" id="Fill-41" fill="#BC342B"></path>
            <path d="M400.719,168.647 C398.237,168.647 395.841,167.506 394.366,165.426 C394.332,165.379 394.299,165.331 394.267,165.283 L395.986,164.261 C396.111,164.439 396.246,164.607 396.389,164.767 C397.487,165.989 399.069,166.65 400.709,166.65 C401.785,166.65 402.886,166.365 403.89,165.768 L433.609,148.104 C436.478,146.4 437.488,142.791 435.863,140.059 L418.251,110.427 C417.198,108.654 415.289,107.679 413.296,107.679 C412.547,107.679 411.786,107.817 411.054,108.101 C410.732,108.226 410.416,108.379 410.109,108.562 L409.863,108.706 L408.843,106.988 L409.087,106.842 C409.371,106.673 409.661,106.523 409.955,106.392 C411.034,105.911 412.172,105.679 413.292,105.679 C415.969,105.679 418.545,107.003 419.972,109.404 L437.582,139.037 C439.771,142.718 438.447,147.559 434.632,149.824 L404.914,167.487 C403.59,168.273 402.141,168.647 400.719,168.647" id="Fill-42" fill="#BC342B"></path>
            <path d="M402.869,102.45 C401.839,102.45 400.824,102.73 399.933,103.259 L371.437,120.196 C370.115,120.98 369.177,122.234 368.798,123.726 C368.419,125.217 368.646,126.769 369.431,128.094 L387.042,157.725 C388.078,159.466 389.98,160.547 392.005,160.547 C393.035,160.547 394.048,160.268 394.939,159.739 L423.437,142.803 C426.166,141.181 427.064,137.637 425.439,134.903 L407.83,105.272 C406.794,103.531 404.894,102.45 402.869,102.45 L402.869,102.45 Z M392.005,162.547 C389.277,162.547 386.716,161.091 385.324,158.746 L367.712,129.115 C366.654,127.331 366.351,125.242 366.861,123.233 C367.371,121.224 368.632,119.534 370.416,118.477 L398.912,101.539 C400.111,100.827 401.48,100.45 402.869,100.45 C405.595,100.45 408.156,101.906 409.548,104.251 L427.158,133.882 C429.345,137.564 428.134,142.337 424.458,144.522 L395.96,161.459 C394.761,162.171 393.392,162.547 392.005,162.547 L392.005,162.547 Z" id="Fill-43" fill="#A2262A"></path>
            <path d="M408.863,105.706 L409.109,105.562 C411.976,103.859 415.628,104.695 417.251,107.427 L434.863,137.059 C436.488,139.791 435.478,143.4 432.609,145.105 L402.89,162.768 C400.156,164.395 396.708,163.702 394.986,161.261 L393.267,162.283 C395.554,165.67 400.228,166.677 403.914,164.487 L433.632,146.824 C437.447,144.559 438.771,139.718 436.582,136.037 L418.972,106.404 C416.785,102.725 411.902,101.574 408.087,103.842 L407.843,103.988 L408.863,105.706" id="Fill-44" fill="#A2262A"></path>
            <path d="M393.773,296.58 C391.634,296.58 389.615,297.799 388.503,299.762 L370.792,331.066 C369.148,333.973 370.019,337.59 372.734,339.127 L401.166,355.217 C401.976,355.674 402.865,355.906 403.804,355.906 C405.945,355.906 407.964,354.688 409.076,352.727 L426.789,321.422 C428.433,318.514 427.562,314.898 424.845,313.359 L396.414,297.273 C395.601,296.814 394.714,296.58 393.773,296.58 L393.773,296.58 Z M403.804,357.906 C402.535,357.906 401.281,357.578 400.181,356.957 L371.75,340.867 C368.074,338.785 366.865,333.947 369.052,330.082 L386.763,298.775 C388.228,296.188 390.916,294.58 393.773,294.58 C395.046,294.58 396.3,294.91 397.4,295.533 L425.83,311.619 C429.505,313.701 430.716,318.539 428.529,322.406 L410.816,353.711 C409.351,356.299 406.666,357.906 403.804,357.906 L403.804,357.906 Z" id="Fill-45" fill="#C13B2B"></path>
            <path d="M426.912,322.57 L427.154,322.709 C430.013,324.33 431.013,327.992 429.378,330.879 L411.666,362.186 C410.033,365.072 406.378,366.107 403.517,364.486 L373.865,347.711 C371.134,346.168 370.109,342.762 371.439,339.943 L369.724,338.973 C367.828,342.793 369.162,347.447 372.837,349.529 L402.488,366.305 C406.292,368.459 411.181,367.047 413.38,363.156 L431.095,331.85 C433.294,327.963 431.988,323.047 428.183,320.895 L427.939,320.756 L426.912,322.57" id="Fill-46" fill="#C13B2B"></path>
            <path d="M393.773,294.58 C391.634,294.58 389.615,295.799 388.503,297.762 L370.792,329.066 C369.148,331.973 370.019,335.59 372.734,337.127 L401.166,353.217 C401.976,353.674 402.865,353.906 403.804,353.906 C405.945,353.906 407.964,352.688 409.076,350.727 L426.789,319.422 C428.433,316.514 427.562,312.898 424.845,311.359 L396.414,295.273 C395.601,294.814 394.714,294.58 393.773,294.58 L393.773,294.58 Z M403.804,355.906 C402.535,355.906 401.281,355.578 400.181,354.957 L371.75,338.867 C368.074,336.785 366.865,331.947 369.052,328.082 L386.763,296.775 C388.228,294.188 390.916,292.58 393.773,292.58 C395.046,292.58 396.3,292.91 397.4,293.533 L425.83,309.619 C429.505,311.701 430.716,316.539 428.529,320.406 L410.816,351.711 C409.351,354.299 406.666,355.906 403.804,355.906 L403.804,355.906 Z" id="Fill-47" fill="#A2262A"></path>
            <path d="M426.912,320.57 L427.154,320.709 C430.013,322.33 431.013,325.992 429.378,328.879 L411.666,360.186 C410.033,363.072 406.378,364.107 403.517,362.486 L373.865,345.711 C371.134,344.168 370.109,340.762 371.439,337.943 L369.724,336.973 C367.828,340.793 369.162,345.447 372.837,347.529 L402.488,364.305 C406.292,366.459 411.181,365.047 413.38,361.156 L431.095,329.85 C433.294,325.963 431.988,321.047 428.183,318.895 L427.939,318.756 L426.912,320.57" id="Fill-48" fill="#A2262A"></path>
            <path d="M223.167,408.5 C223.167,411.447 220.779,413.834 217.833,413.834 C214.888,413.834 212.5,411.447 212.5,408.5 C212.5,405.555 214.888,403.168 217.833,403.168 C220.779,403.168 223.167,405.555 223.167,408.5" id="Fill-49" fill="#E8E7DB"></path>
            <path d="M250.167,408.834 C250.167,411.781 247.779,414.168 244.833,414.168 C241.888,414.168 239.5,411.781 239.5,408.834 C239.5,405.889 241.888,403.502 244.833,403.502 C247.779,403.502 250.167,405.889 250.167,408.834" id="Fill-50" fill="#E8E7DB"></path>
            <path d="M249.833,421.834 C249.833,424.781 247.445,427.168 244.5,427.168 C241.554,427.168 239.166,424.781 239.166,421.834 C239.166,418.889 241.554,416.502 244.5,416.502 C247.445,416.502 249.833,418.889 249.833,421.834" id="Fill-51" fill="#E8E7DB"></path>
            <path d="M249.833,435.168 C249.833,438.113 247.445,440.502 244.5,440.502 C241.554,440.502 239.166,438.113 239.166,435.168 C239.166,432.223 241.554,429.834 244.5,429.834 C247.445,429.834 249.833,432.223 249.833,435.168" id="Fill-52" fill="#E8E7DB"></path>
            <path d="M222.501,435.166 C222.501,438.113 220.112,440.5 217.167,440.5 C214.222,440.5 211.833,438.113 211.833,435.166 C211.833,432.221 214.222,429.834 217.167,429.834 C220.112,429.834 222.501,432.221 222.501,435.166" id="Fill-53" fill="#E8E7DB"></path>
            <path d="M222.501,421.834 C222.501,424.781 220.112,427.168 217.167,427.168 C214.222,427.168 211.833,424.781 211.833,421.834 C211.833,418.889 214.222,416.502 217.167,416.502 C220.112,416.502 222.501,418.889 222.501,421.834" id="Fill-54" fill="#E8E7DB"></path>
            <path d="M87.501,330.502 C87.501,333.447 85.112,335.836 82.166,335.836 C79.221,335.836 76.832,333.447 76.832,330.502 C76.832,327.557 79.221,325.168 82.166,325.168 C85.112,325.168 87.501,327.557 87.501,330.502" id="Fill-55" fill="#E8E7DB"></path>
            <path d="M63.167,344.5 C63.167,347.447 60.779,349.834 57.833,349.834 C54.888,349.834 52.499,347.447 52.499,344.5 C52.499,341.555 54.888,339.168 57.833,339.168 C60.779,339.168 63.167,341.555 63.167,344.5" id="Fill-56" fill="#E8E7DB"></path>
            <path d="M50.167,320.834 C50.167,323.781 47.779,326.168 44.833,326.168 C41.888,326.168 39.499,323.781 39.499,320.834 C39.499,317.889 41.888,315.502 44.833,315.502 C47.779,315.502 50.167,317.889 50.167,320.834" id="Fill-57" fill="#E8E7DB"></path>
            <path d="M74.167,307.834 C74.167,310.781 71.779,313.168 68.833,313.168 C65.888,313.168 63.499,310.781 63.499,307.834 C63.499,304.889 65.888,302.502 68.833,302.502 C71.779,302.502 74.167,304.889 74.167,307.834" id="Fill-58" fill="#E8E7DB"></path>
            <path d="M86.624,127.744 C86.624,130.69 84.236,133.078 81.29,133.078 C78.345,133.078 75.956,130.69 75.956,127.744 C75.956,124.799 78.345,122.411 81.29,122.411 C84.236,122.411 86.624,124.799 86.624,127.744" id="Fill-59" fill="#E8E7DB"></path>
            <path d="M234.833,35.167 C234.833,38.113 232.445,40.501 229.5,40.501 C226.555,40.501 224.166,38.113 224.166,35.167 C224.166,32.222 226.555,29.834 229.5,29.834 C232.445,29.834 234.833,32.222 234.833,35.167" id="Fill-60" fill="#E8E7DB"></path>
            <path d="M384.167,127.167 C384.167,130.113 381.779,132.501 378.833,132.501 C375.888,132.501 373.5,130.113 373.5,127.167 C373.5,124.222 375.888,121.834 378.833,121.834 C381.779,121.834 384.167,124.222 384.167,127.167" id="Fill-61" fill="#E8E7DB"></path>
            <path d="M401.167,131.167 C401.167,134.113 398.779,136.501 395.833,136.501 C392.888,136.501 390.5,134.113 390.5,131.167 C390.5,128.222 392.888,125.834 395.833,125.834 C398.779,125.834 401.167,128.222 401.167,131.167" id="Fill-62" fill="#E8E7DB"></path>
            <path d="M420.833,136.834 C420.833,139.78 418.445,142.168 415.5,142.168 C412.554,142.168 410.166,139.78 410.166,136.834 C410.166,133.889 412.554,131.501 415.5,131.501 C418.445,131.501 420.833,133.889 420.833,136.834" id="Fill-63" fill="#E8E7DB"></path>
            <path d="M421.501,320.5 C421.501,323.445 419.113,325.834 416.167,325.834 C413.222,325.834 410.833,323.445 410.833,320.5 C410.833,317.555 413.222,315.166 416.167,315.166 C419.113,315.166 421.501,317.555 421.501,320.5" id="Fill-64" fill="#E8E7DB"></path>
            <path d="M384.833,330.5 C384.833,333.445 382.445,335.834 379.5,335.834 C376.554,335.834 374.166,333.445 374.166,330.5 C374.166,327.555 376.554,325.166 379.5,325.166 C382.445,325.166 384.833,327.555 384.833,330.5" id="Fill-65" fill="#E8E7DB"></path>
            <path d="M63.441,113.628 C63.441,116.574 61.052,118.962 58.107,118.962 C55.162,118.962 52.773,116.574 52.773,113.628 C52.773,110.683 55.162,108.295 58.107,108.295 C61.052,108.295 63.441,110.683 63.441,113.628" id="Fill-66" fill="#E8E7DB"></path>
            <path d="M68.284,132.072 C68.284,135.019 65.895,137.406 62.95,137.406 C60.004,137.406 57.616,135.019 57.616,132.072 C57.616,129.127 60.004,126.739 62.95,126.739 C65.895,126.739 68.284,129.127 68.284,132.072" id="Fill-67" fill="#E8E7DB"></path>
            <path d="M72.92,151.134 C72.92,154.08 70.532,156.468 67.586,156.468 C64.641,156.468 62.252,154.08 62.252,151.134 C62.252,148.189 64.641,145.801 67.586,145.801 C70.532,145.801 72.92,148.189 72.92,151.134" id="Fill-68" fill="#E8E7DB"></path>
            <path d="M49.943,137.533 C49.943,140.48 47.554,142.867 44.609,142.867 C41.664,142.867 39.275,140.48 39.275,137.533 C39.275,134.588 41.664,132.2 44.609,132.2 C47.554,132.2 49.943,134.588 49.943,137.533" id="Fill-69" fill="#E8E7DB"></path>
        </g>
    </g>
</svg>