<?xml version="1.0" encoding="UTF-8" standalone="no"?>
<!-- Created with Inkscape (http://www.inkscape.org/) -->
<svg xmlns:rdf="http://www.w3.org/1999/02/22-rdf-syntax-ns#" xmlns="http://www.w3.org/2000/svg" xmlns:cc="http://web.resource.org/cc/" xmlns:dc="http://purl.org/dc/elements/1.1/" xmlns:svg="http://www.w3.org/2000/svg" xmlns:inkscape="http://www.inkscape.org/namespaces/inkscape" xmlns:sodipodi="http://sodipodi.sourceforge.net/DTD/sodipodi-0.dtd" xmlns:ns1="http://sozi.baierouge.fr" xmlns:xlink="http://www.w3.org/1999/xlink" id="svg2184" viewBox="0 0 1380 955.69" version="1.0" inkscape:version="0.91 r13725">
  <g id="layer1" transform="translate(1600 131.59)">
    <path id="path5166" style="color:#000000;stroke:#000000;stroke-linecap:round;stroke-width:3.5433;fill:none" d="m104 80-64.416-0.24-32-55.905 32.416-55.666l64.416 0.23995 32 55.906-32.42 55.665z" transform="translate(-1510.6 13.988)"/>
    <path id="path5549" style="color:#000000;stroke:#000000;stroke-linecap:round;stroke-width:3.5433;fill:none" d="m104 80-64.416-0.24-32-55.905 32.416-55.666l64.416 0.23995 32 55.906-32.42 55.665z" transform="translate(-1414.6 69.988)"/>
    <path id="path5551" style="color:ff00000;stroke:ff00000;stroke-linecap:round;stroke-width:3.5433;fill:none" d="m104 80-64.416-0.24-32-55.905 32.416-55.666l64.416 0.23995 32 55.906-32.42 55.665z" transform="translate(-1414.2 -41.772)"/>
    <path id="path5553" style="color:#000000;stroke:#000000;stroke-linecap:round;stroke-width:3.5433;fill:none" d="m104 80-64.416-0.24-32-55.905 32.416-55.666l64.416 0.23995 32 55.906-32.42 55.665z" transform="translate(-1318.2 14.228)"/>
    <path id="path5555" style="color:#000000;stroke:#0dd000;stroke-linecap:round;stroke-width:3.5433;fill:none" d="m104 80-64.416-0.24-32-55.905 32.416-55.666l64.416 0.23995 32 55.906-32.42 55.665z" transform="translate(-1414.2 182.32)"/>
    <path id="path5557" style="color:#000000;stroke:#000000;stroke-linecap:round;stroke-width:3.5433;fill:none" d="m104 80-64.416-0.24-32-55.905 32.416-55.666l64.416 0.23995 32 55.906-32.42 55.665z" transform="translate(-1318.2 238.32)"/>
    <path id="path5559" style="color:#000000;stroke:#000000;stroke-linecap:round;stroke-width:3.5433;fill:none" d="m104 80-64.416-0.24-32-55.905 32.416-55.666l64.416 0.23995 32 55.906-32.42 55.665z" transform="translate(-1317.8 126.56)"/>
    <path id="path5561" style="color:orange;stroke:orange;stroke-linecap:round;stroke-width:3.5433;fill:none" d="m104 80-64.416-0.24-32-55.905 32.416-55.666l64.416 0.23995 32 55.906-32.42 55.665z" transform="translate(-1221.8 182.56)"/>
    <path id="path5563" style="color:#000000;stroke:#000000;stroke-linecap:round;stroke-width:3.5433;fill:none" d="m104 80-64.416-0.24-32-55.905 32.416-55.666l64.416 0.23995 32 55.906-32.42 55.665z" transform="translate(-1223.1 69.654)"/>
    <path id="path5565" style="color:#000000;stroke:#000000;stroke-linecap:round;stroke-width:3.5433;fill:none" d="m104 80-64.416-0.24-32-55.905 32.416-55.666l64.416 0.23995 32 55.906-32.42 55.665z" transform="translate(-1127.1 125.65)"/>
    <path id="path5567" style="color:#ff0000;stroke:#ff0000;stroke-linecap:round;stroke-width:3.5433;fill:none" d="m104 80-64.416-0.24-32-55.905 32.416-55.666l64.416 0.23995 32 55.906-32.42 55.665z" transform="translate(-1126.6 13.894)"/>
    <path id="path5569" style="color:#000000;stroke:#000000;stroke-linecap:round;stroke-width:3.5433;fill:none" d="m104 80-64.416-0.24-32-55.905 32.416-55.666l64.416 0.23995 32 55.906-32.42 55.665z" transform="translate(-1030.6 69.894)"/>
    <path id="path5571" style="color:#000000;stroke:#00dd00;stroke-linecap:round;stroke-width:3.5433;fill:none" d="m104 80-64.416-0.24-32-55.905 32.416-55.666l64.416 0.23995 32 55.906-32.42 55.665z" transform="translate(-1126.6 237.99)"/>
    <path id="path5573" style="color:#000000;stroke:#000000;stroke-linecap:round;stroke-width:3.5433;fill:none" d="m104 80-64.416-0.24-32-55.905 32.416-55.666l64.416 0.23995 32 55.906-32.42 55.665z" transform="translate(-1030.6 293.99)"/>
    <path id="path5575" style="color:#000000;stroke:#000000;stroke-linecap:round;stroke-width:3.5433;fill:none" d="m104 80-64.416-0.24-32-55.905 32.416-55.666l64.416 0.23995 32 55.906-32.42 55.665z" transform="translate(-1030.2 182.23)"/>
    <path id="path5577" style="color:orange;stroke:orange;stroke-linecap:round;stroke-width:3.5433;fill:none" d="m104 80-64.416-0.24-32-55.905 32.416-55.666l64.416 0.23995 32 55.906-32.42 55.665z" transform="translate(-934.23 238.23)"/>
    <path id="path5579" style="color:#000000;stroke:#000000;stroke-linecap:round;stroke-width:3.5433;fill:none" d="m104 80-64.416-0.24-32-55.905 32.416-55.666l64.416 0.23995 32 55.906-32.42 55.665z" transform="translate(-1318.2 350.32)"/>
    <path id="path5581" style="color:#ff0000;stroke:#ff0000;stroke-linecap:round;stroke-width:3.5433;fill:none" d="m104 80-64.416-0.24-32-55.905 32.416-55.666l64.416 0.23995 32 55.906-32.42 55.665z" transform="translate(-1222.2 406.32)"/>
    <path id="path5583" style="color:#000000;stroke:#000000;stroke-linecap:round;stroke-width:3.5433;fill:none" d="m104 80-64.416-0.24-32-55.905 32.416-55.666l64.416 0.23995 32 55.906-32.42 55.665z" transform="translate(-1221.8 294.56)"/>
    <path id="path5585" style="color:#000000;stroke:#00dd00;stroke-linecap:round;stroke-width:3.5433;fill:none" d="m104 80-64.416-0.24-32-55.905 32.416-55.666l64.416 0.23995 32 55.906-32.42 55.665z" transform="translate(-1125.8 350.56)"/>
    <path id="path5587" style="color:#000000;stroke:#000000;stroke-linecap:round;stroke-width:3.5433;fill:none" d="m104 80-64.416-0.24-32-55.905 32.416-55.666l64.416 0.23995 32 55.906-32.42 55.665z" transform="translate(-1221.8 518.66)"/>
    <path id="path5589" style="color:#000000;stroke:#000000;stroke-linecap:round;stroke-width:3.5433;fill:none" d="m104 80-64.416-0.24-32-55.905 32.416-55.666l64.416 0.23995 32 55.906-32.42 55.665z" transform="translate(-1125.8 574.66)"/>
    <path id="path5591" style="color:orange;stroke:orange;stroke-linecap:round;stroke-width:3.5433;fill:none" d="m104 80-64.416-0.24-32-55.905 32.416-55.666l64.416 0.23995 32 55.906-32.42 55.665z" transform="translate(-1125.4 462.9)"/>
    <path id="path5593" style="color:#000000;stroke:#000000;stroke-linecap:round;stroke-width:3.5433;fill:none" d="m104 80-64.416-0.24-32-55.905 32.416-55.666l64.416 0.23995 32 55.906-32.42 55.665z" transform="translate(-1029.4 518.9)"/>
    <path id="path5595" style="color:#ff0000;stroke:#ff0000;stroke-linecap:round;stroke-width:3.5433;fill:none" d="m104 80-64.416-0.24-32-55.905 32.416-55.666l64.416 0.23995 32 55.906-32.42 55.665z" transform="translate(-1030.6 405.99)"/>
    <path id="path5597" style="color:#000000;stroke:#000000;stroke-linecap:round;stroke-width:3.5433;fill:none" d="m104 80-64.416-0.24-32-55.905 32.416-55.666l64.416 0.23995 32 55.906-32.42 55.665z" transform="translate(-934.64 461.99)"/>
    <path id="path5599" style="color:#000000;stroke:#00dd00;stroke-linecap:round;stroke-width:3.5433;fill:none" d="m104 80-64.416-0.24-32-55.905 32.416-55.666l64.416 0.23995 32 55.906-32.42 55.665z" transform="translate(-934.23 350.23)"/>
    <path id="path5601" style="color:#000000;stroke:#000000;stroke-linecap:round;stroke-width:3.5433;fill:none" d="m104 80-64.416-0.24-32-55.905 32.416-55.666l64.416 0.23995 32 55.906-32.42 55.665z" transform="translate(-838.23 406.23)"/>
    <path id="path5603" style="color:#000000;stroke:#000000;stroke-linecap:round;stroke-width:3.5433;fill:none" d="m104 80-64.416-0.24-32-55.905 32.416-55.666l64.416 0.23995 32 55.906-32.42 55.665z" transform="translate(-934.23 574.32)"/>
    <path id="path5605" style="color:orange;stroke:orange;stroke-linecap:round;stroke-width:3.5433;fill:none" d="m104 80-64.416-0.24-32-55.905 32.416-55.666l64.416 0.23995 32 55.906-32.42 55.665z" transform="translate(-838.23 630.32)"/>
    <path id="path5607" style="color:#000000;stroke:#000000;stroke-linecap:round;stroke-width:3.5433;fill:none" d="m104 80-64.416-0.24-32-55.905 32.416-55.666l64.416 0.23995 32 55.906-32.42 55.665z" transform="translate(-837.81 518.56)"/>
    <path id="path5609" style="color:#000000;stroke:#000000;stroke-linecap:round;stroke-width:3.5433;fill:none" d="m104 80-64.416-0.24-32-55.905 32.416-55.666l64.416 0.23995 32 55.906-32.42 55.665z" transform="translate(-741.81 574.56)"/>
    <path id="path5611" style="color:#000000;stroke:#000000;stroke-linecap:round;stroke-width:3.5433;fill:none" d="m104 80-64.416-0.24-32-55.905 32.416-55.666l64.416 0.23995 32 55.906-32.42 55.665z" transform="translate(-839.48 293.51)"/>
    <path id="path5613" style="color:#ff0000;stroke:#ff0000;stroke-linecap:round;stroke-width:3.5433;fill:none" d="m104 80-64.416-0.24-32-55.905 32.416-55.666l64.416 0.23995 32 55.906-32.42 55.665z" transform="translate(-743.48 349.51)"/>
    <path id="path5615" style="color:#000000;stroke:#000000;stroke-linecap:round;stroke-width:3.5433;fill:none" d="m104 80-64.416-0.24-32-55.905 32.416-55.666l64.416 0.23995 32 55.906-32.42 55.665z" transform="translate(-743.06 237.75)"/>
    <path id="path5617" style="color:#000000;stroke:#00dd00;stroke-linecap:round;stroke-width:3.5433;fill:none" d="m104 80-64.416-0.24-32-55.905 32.416-55.666l64.416 0.23995 32 55.906-32.42 55.665z" transform="translate(-647.06 293.75)"/>
    <path id="path5619" style="color:#000000;stroke:#000000;stroke-linecap:round;stroke-width:3.5433;fill:none" d="m104 80-64.416-0.24-32-55.905 32.416-55.666l64.416 0.23995 32 55.906-32.42 55.665z" transform="translate(-743.06 461.84)"/>
    <path id="path5621" style="color:#000000;stroke:#000000;stroke-linecap:round;stroke-width:3.5433;fill:none" d="m104 80-64.416-0.24-32-55.905 32.416-55.666l64.416 0.23995 32 55.906-32.42 55.665z" transform="translate(-647.06 517.84)"/>
    <path id="path5623" style="color:orange;stroke:orange;stroke-linecap:round;stroke-width:3.5433;fill:none" d="m104 80-64.416-0.24-32-55.905 32.416-55.666l64.416 0.23995 32 55.906-32.42 55.665z" transform="translate(-646.64 406.08)"/>
    <path id="path5625" style="color:#000000;stroke:#000000;stroke-linecap:round;stroke-width:3.5433;fill:none" d="m104 80-64.416-0.24-32-55.905 32.416-55.666l64.416 0.23995 32 55.906-32.42 55.665z" transform="translate(-550.64 462.08)"/>
    <path id="path5635" style="color:#000000;stroke:#00dd00;stroke-linecap:round;stroke-width:3.5433;fill:none" d="m104 80-64.416-0.24-32-55.905 32.416-55.666l64.416 0.23995 32 55.906-32.42 55.665z" transform="translate(-550.64 350.08)"/>
    <path id="path5637" style="color:#000000;stroke:#000000;stroke-linecap:round;stroke-width:3.5433;fill:none" d="m104 80-64.416-0.24-32-55.905 32.416-55.666l64.416 0.23995 32 55.906-32.42 55.665z" transform="translate(-454.64 406.08)"/>
    <path id="path5639" style="color:#000000;stroke:#000000;stroke-linecap:round;stroke-width:3.5433;fill:none" d="m104 80-64.416-0.24-32-55.905 32.416-55.666l64.416 0.23995 32 55.906-32.42 55.665z" transform="translate(-454.23 294.32)"/>
    <path id="path5641" style="color:orange;stroke:orange;stroke-linecap:round;stroke-width:3.5433;fill:none" d="m104 80-64.416-0.24-32-55.905 32.416-55.666l64.416 0.23995 32 55.906-32.42 55.665z" transform="translate(-358.23 350.32)"/>
    <path id="path5643" style="color:#000000;stroke:#000000;stroke-linecap:round;stroke-width:3.5433;fill:none" d="m104 80-64.416-0.24-32-55.905 32.416-55.666l64.416 0.23995 32 55.906-32.42 55.665z" transform="translate(-934.64 126.08)"/>
    <path id="path5645" style="color:#000000;stroke:#000000;stroke-linecap:round;stroke-width:3.5433;fill:none" d="m104 80-64.416-0.24-32-55.905 32.416-55.666l64.416 0.23995 32 55.906-32.42 55.665z" transform="translate(-838.64 182.08)"/>
    <path id="path5647" style="color:#000000;stroke:#000000;stroke-linecap:round;stroke-width:3.5433;fill:none" d="m104 80-64.416-0.24-32-55.905 32.416-55.666l64.416 0.23995 32 55.906-32.42 55.665z" transform="translate(-838.23 70.323)"/>
    <path id="path5649" style="color:#000000;stroke:#000000;stroke-linecap:round;stroke-width:3.5433;fill:none" d="m104 80-64.416-0.24-32-55.905 32.416-55.666l64.416 0.23995 32 55.906-32.42 55.665z" transform="translate(-742.23 126.32)"/>
    <path id="path5653" style="color:#000000;stroke:#000000;stroke-linecap:round;stroke-width:3.5433;fill:none" d="m104 80-64.416-0.24-32-55.905 32.416-55.666l64.416 0.23995 32 55.906-32.42 55.665z" transform="translate(-644.04 71.76)"/>
    <path id="path5659" style="color:#000000;stroke:#000000;stroke-linecap:round;stroke-width:3.5433;fill:none" d="m104 80-64.416-0.24-32-55.905 32.416-55.666l64.416 0.23995 32 55.906-32.42 55.665z" transform="translate(-1031.1 -42.252)"/>
    <path id="path5661" style="color:#000000;stroke:#000000;stroke-linecap:round;stroke-width:3.5433;fill:none" d="m104 80-64.416-0.24-32-55.905 32.416-55.666l64.416 0.23995 32 55.906-32.42 55.665z" transform="translate(-935.06 13.748)"/>
    <path id="path5663" style="color:#ff0000;stroke:#ff0000;stroke-linecap:round;stroke-width:3.5433;fill:none" d="m104 80-64.416-0.24-32-55.905 32.416-55.666l64.416 0.23995 32 55.906-32.42 55.665z" transform="translate(-934.64 -98.012)"/>
    <path id="path5665" style="color:#000000;stroke:#000000;stroke-linecap:round;stroke-width:3.5433;fill:none" d="m104 80-64.416-0.24-32-55.905 32.416-55.666l64.416 0.23995 32 55.906-32.42 55.665z" transform="translate(-838.64 -42.012)"/>
    <path id="path5667" style="color:#000000;stroke:#00dd00;stroke-linecap:round;stroke-width:3.5433;fill:none" d="m104 80-64.416-0.24-32-55.905 32.416-55.666l64.416 0.23995 32 55.906-32.42 55.665z" transform="translate(-1510.2 462.23)"/>
    <path id="path5669" style="color:#000000;stroke:#000000;stroke-linecap:round;stroke-width:3.5433;fill:none" d="m104 80-64.416-0.24-32-55.905 32.416-55.666l64.416 0.23995 32 55.906-32.42 55.665z" transform="translate(-1414.2 518.23)"/>
    <path id="path5671" style="color:#000000;stroke:#000000;stroke-linecap:round;stroke-width:3.5433;fill:none" d="m104 80-64.416-0.24-32-55.905 32.416-55.666l64.416 0.23995 32 55.906-32.42 55.665z" transform="translate(-1413.8 406.47)"/>
    <path id="path5673" style="color:orange;stroke:orange;stroke-linecap:round;stroke-width:3.5433;fill:none" d="m104 80-64.416-0.24-32-55.905 32.416-55.666l64.416 0.23995 32 55.906-32.42 55.665z" transform="translate(-1317.8 462.47)"/>
    <path id="path5675" style="color:#000000;stroke:#000000;stroke-linecap:round;stroke-width:3.5433;fill:none" d="m104 80-64.416-0.24-32-55.905 32.416-55.666l64.416 0.23995 32 55.906-32.42 55.665z" transform="translate(-1605.8 294.66)"/>
    <path id="path5677" style="color:#000000;stroke:#000000;stroke-linecap:round;stroke-width:3.5433;fill:none" d="m104 80-64.416-0.24-32-55.905 32.416-55.666l64.416 0.23995 32 55.906-32.42 55.665z" transform="translate(-1509.8 350.66)"/>
    <path id="path5679" style="color:#000000;stroke:#000000;stroke-linecap:round;stroke-width:3.5433;fill:none" d="m104 80-64.416-0.24-32-55.905 32.416-55.666l64.416 0.23995 32 55.906-32.42 55.665z" transform="translate(-1509.4 238.9)"/>
    <path id="path5681" style="color:#000000;stroke:#000000;stroke-linecap:round;stroke-width:3.5433;fill:none" d="m104 80-64.416-0.24-32-55.905 32.416-55.666l64.416 0.23995 32 55.906-32.42 55.665z" transform="translate(-1413.4 294.9)"/>
    <path id="path5683" style="color:#000000;stroke:#000000;stroke-linecap:round;stroke-width:3.5433;fill:none" d="m104 80-64.416-0.24-32-55.905 32.416-55.666l64.416 0.23995 32 55.906-32.42 55.665z" transform="translate(-1413.8 630.56)"/>
    <path id="path5685" style="color:#000000;stroke:#000000;stroke-linecap:round;stroke-width:3.5433;fill:none" d="m104 80-64.416-0.24-32-55.905 32.416-55.666l64.416 0.23995 32 55.906-32.42 55.665z" transform="translate(-1317.8 686.56)"/>
    <path id="path5687" style="color:#000000;stroke:#000000;stroke-linecap:round;stroke-width:3.5433;fill:none" d="m104 80-64.416-0.24-32-55.905 32.416-55.666l64.416 0.23995 32 55.906-32.42 55.665z" transform="translate(-1317.4 574.8)"/>
    <path id="path5689" style="color:#000000;stroke:#000000;stroke-linecap:round;stroke-width:3.5433;fill:none" d="m104 80-64.416-0.24-32-55.905 32.416-55.666l64.416 0.23995 32 55.906-32.42 55.665z" transform="translate(-1221.4 630.8)"/>
    <path id="path5691" style="color:#000000;stroke:#000000;stroke-linecap:round;stroke-width:3.5433;fill:none" d="m104 80-64.416-0.24-32-55.905 32.416-55.666l64.416 0.23995 32 55.906-32.42 55.665z" transform="translate(-742.23 686.32)"/>
    <path id="path5693" style="color:#000000;stroke:#000000;stroke-linecap:round;stroke-width:3.5433;fill:none" d="m104 80-64.416-0.24-32-55.905 32.416-55.666l64.416 0.23995 32 55.906-32.42 55.665z" transform="translate(-646.23 742.32)"/>
    <path id="path5695" style="color:#000000;stroke:#000000;stroke-linecap:round;stroke-width:3.5433;fill:none" d="m104 80-64.416-0.24-32-55.905 32.416-55.666l64.416 0.23995 32 55.906-32.42 55.665z" transform="translate(-645.81 630.56)"/>
    <path id="path5697" style="color:#000000;stroke:#000000;stroke-linecap:round;stroke-width:3.5433;fill:none" d="m104 80-64.416-0.24-32-55.905 32.416-55.666l64.416 0.23995 32 55.906-32.42 55.665z" transform="translate(-549.81 686.56)"/>
    <path id="path5699" style="color:#000000;stroke:#000000;stroke-linecap:round;stroke-width:3.5433;fill:none" d="m104 80-64.416-0.24-32-55.905 32.416-55.666l64.416 0.23995 32 55.906-32.42 55.665z" transform="translate(-1126.2 686.23)"/>
    <path id="path5701" style="color:#000000;stroke:#000000;stroke-linecap:round;stroke-width:3.5433;fill:none" d="m104 80-64.416-0.24-32-55.905 32.416-55.666l64.416 0.23995 32 55.906-32.42 55.665z" transform="translate(-1030.2 742.23)"/>
    <path id="path5703" style="color:#000000;stroke:#000000;stroke-linecap:round;stroke-width:3.5433;fill:none" d="m104 80-64.416-0.24-32-55.905 32.416-55.666l64.416 0.23995 32 55.906-32.42 55.665z" transform="translate(-1029.8 630.47)"/>
    <path id="path5705" style="color:#000000;stroke:#000000;stroke-linecap:round;stroke-width:3.5433;fill:none" d="m104 80-64.416-0.24-32-55.905 32.416-55.666l64.416 0.23995 32 55.906-32.42 55.665z" transform="translate(-933.81 686.47)"/>
  </g>
  <metadata>
    <rdf:RDF>
      <cc:Work>
        <dc:format>image/svg+xml</dc:format>
        <dc:type rdf:resource="http://purl.org/dc/dcmitype/StillImage"/>
        <cc:license rdf:resource="http://creativecommons.org/licenses/publicdomain/"/>
        <dc:publisher>
          <cc:Agent rdf:about="http://openclipart.org/">
            <dc:title>Openclipart</dc:title>
          </cc:Agent>
        </dc:publisher>
        <dc:title>Futurist hexagons</dc:title>
        <dc:date>2009-03-11T09:44:25</dc:date>
        <dc:description/>
        <dc:source>https://openclipart.org/detail/22140/futurist-hexagons-by-steren</dc:source>
        <dc:creator>
          <cc:Agent>
            <dc:title>Steren</dc:title>
          </cc:Agent>
        </dc:creator>
        <dc:subject>
          <rdf:Bag>
            <rdf:li>futurist</rdf:li>
            <rdf:li>hexa</rdf:li>
            <rdf:li>hexagon</rdf:li>
            <rdf:li>vector</rdf:li>
          </rdf:Bag>
        </dc:subject>
      </cc:Work>
      <cc:License rdf:about="http://creativecommons.org/licenses/publicdomain/">
        <cc:permits rdf:resource="http://creativecommons.org/ns#Reproduction"/>
        <cc:permits rdf:resource="http://creativecommons.org/ns#Distribution"/>
        <cc:permits rdf:resource="http://creativecommons.org/ns#DerivativeWorks"/>
      </cc:License>
    </rdf:RDF>
  </metadata>
</svg>
