<?xml version="1.0" encoding="iso-8859-1"?>
<!-- Generator: Adobe Illustrator 19.0.0, SVG Export Plug-In . SVG Version: 6.00 Build 0)  -->
<svg version="1.1" id="Layer_1" xmlns="http://www.w3.org/2000/svg" xmlns:xlink="http://www.w3.org/1999/xlink" x="0px" y="0px"
	 viewBox="0 0 512 512" style="enable-background:new 0 0 512 512;" xml:space="preserve">
<g>
	<polygon style="fill:#F95428;" points="123.512,294.061 200.123,398.331 123.512,502.6 46.901,398.331 	"/>
	<path style="fill:#F95428;" d="M460.384,44.853c22.634,22.646,22.634,59.354,0,81.987l-0.777,0.777l-81.987,81.987l-81.987-81.987
		l-0.764-0.777c-11.329-11.317-16.981-26.155-16.981-40.994s5.652-29.677,16.981-40.994c22.634-22.634,59.341-22.634,81.975,0
		l0.777,0.777l0.777-0.777c11.317-11.317,26.155-16.981,40.994-16.981C434.229,27.872,449.067,33.536,460.384,44.853z"/>
</g>
<g>
	<path style="fill:#4D4D4D;" d="M197.228,83.115c10.089,10.076,15.127,23.298,15.127,36.52c0,13.209-5.038,26.418-15.127,36.507
		c-20.165,20.177-52.862,20.177-73.026,0l-0.689-0.689l-0.689,0.689c-10.076,10.089-23.298,15.127-36.52,15.127
		c-13.209,0-26.418-5.038-36.507-15.127c-20.165-20.165-20.165-52.862,0-73.026l0.689-0.689l73.027-73.026l73.026,73.026
		L197.228,83.115z"/>
	<circle style="fill:#4D4D4D;" cx="314.702" cy="411.502" r="34.539"/>
	<circle style="fill:#4D4D4D;" cx="440.528" cy="411.502" r="34.539"/>
	<circle style="fill:#4D4D4D;" cx="377.615" cy="335.831" r="34.539"/>
</g>
<g>
	<path style="fill:#333333;" d="M377.62,219.004c-2.405,0-4.811-0.917-6.646-2.753l-82.807-82.819
		c-12.669-12.655-19.68-29.575-19.68-47.584s7.009-34.929,19.739-47.643c12.718-12.718,29.634-19.725,47.629-19.725
		c15.352,0,29.917,5.098,41.764,14.495c11.851-9.399,26.42-14.501,41.771-14.501c17.995,0,34.914,7.008,47.64,19.735
		c26.263,26.277,26.262,69.019,0,95.279l-82.764,82.764C382.431,218.087,380.025,219.004,377.62,219.004z M335.857,37.297
		c-12.438,0-24.873,4.733-34.343,14.202c-9.176,9.166-14.228,21.363-14.228,34.348s5.052,25.181,14.224,34.344l0.823,0.836
		l75.286,75.285l76.116-76.116c18.936-18.937,18.935-49.754,0-68.699c-9.174-9.174-21.372-14.227-34.345-14.227
		s-25.171,5.053-34.348,14.229l-0.777,0.777c-1.762,1.762-4.153,2.753-6.646,2.753h-0.001c-2.494,0-4.884-0.991-6.647-2.756
		l-0.777-0.777C360.729,42.032,348.291,37.297,335.857,37.297z"/>
	<path style="fill:#333333;" d="M160.715,180.674c-13.633,0-26.584-4.442-37.201-12.64c-10.61,8.194-23.563,12.634-37.21,12.634
		c-16.298,0-31.623-6.35-43.153-17.88c-11.529-11.527-17.878-26.856-17.878-43.159c0-16.305,6.349-31.632,17.878-43.159
		l73.716-73.716c3.671-3.671,9.622-3.671,13.292,0l73.717,73.717c11.527,11.512,17.879,26.844,17.879,43.164
		c0,16.298-6.35,31.623-17.88,43.153C192.348,174.321,177.019,180.674,160.715,180.674z M123.512,146.053
		c2.405,0,4.811,0.917,6.646,2.753l0.689,0.689c7.979,7.984,18.586,12.38,29.867,12.38s21.888-4.396,29.865-12.378
		c7.982-7.981,12.376-18.586,12.376-29.862c0-11.294-4.393-21.902-12.369-29.869l-67.074-67.074L56.445,89.759
		c-7.979,7.979-12.373,18.586-12.373,29.869c0,11.282,4.394,21.889,12.371,29.867c7.979,7.979,18.584,12.375,29.861,12.375
		c11.294,0,21.903-4.393,29.869-12.37l0.693-0.693C118.701,146.971,121.107,146.053,123.512,146.053z"/>
	<rect x="114.797" y="156.141" style="fill:#333333;" width="18.799" height="71.936"/>
	<path style="fill:#333333;" d="M165.396,237.477H83.007c-5.191,0-9.399-4.208-9.399-9.399s4.208-9.399,9.399-9.399h82.388
		c5.191,0,9.399,4.208,9.399,9.399S170.587,237.477,165.396,237.477z"/>
	<path style="fill:#333333;" d="M123.512,512c-2.991,0-5.804-1.424-7.575-3.834l-76.611-104.27c-2.433-3.312-2.433-7.819,0-11.131
		l76.611-104.27c1.771-2.41,4.583-3.834,7.575-3.834s5.804,1.424,7.575,3.834l76.611,104.27c2.433,3.312,2.433,7.819,0,11.131
		l-76.611,104.27C129.316,510.576,126.504,512,123.512,512z M58.565,398.331l64.947,88.395l64.947-88.395l-64.947-88.395
		L58.565,398.331z"/>
	<path style="fill:#333333;" d="M422.035,504.781h-88.817c-5.191,0-9.399-4.208-9.399-9.399c0-5.191,4.208-9.399,9.399-9.399h88.817
		c5.191,0,9.399,4.208,9.399,9.399C431.434,500.573,427.226,504.781,422.035,504.781z"/>
	<path style="fill:#333333;" d="M314.707,455.441c-24.228,0-43.939-19.711-43.939-43.939c0-24.228,19.711-43.939,43.939-43.939
		c24.228,0,43.939,19.711,43.939,43.939C358.646,435.73,338.935,455.441,314.707,455.441z M314.707,386.362
		c-13.862,0-25.14,11.278-25.14,25.14c0,13.862,11.278,25.14,25.14,25.14c13.862,0,25.14-11.278,25.14-25.14
		C339.847,397.64,328.569,386.362,314.707,386.362z"/>
	<path style="fill:#333333;" d="M377.62,379.77c-24.228,0-43.939-19.711-43.939-43.939c0-24.228,19.711-43.939,43.939-43.939
		c24.228,0,43.939,19.711,43.939,43.939C421.559,360.059,401.848,379.77,377.62,379.77z M377.62,310.691
		c-13.862,0-25.14,11.278-25.14,25.14c0,13.862,11.278,25.14,25.14,25.14c13.862,0,25.14-11.278,25.14-25.14
		C402.76,321.969,391.482,310.691,377.62,310.691z"/>
	<path style="fill:#333333;" d="M440.533,455.441c-24.228,0-43.939-19.711-43.939-43.939c0-24.228,19.711-43.939,43.939-43.939
		s43.939,19.711,43.939,43.939C484.471,435.73,464.76,455.441,440.533,455.441z M440.533,386.362
		c-13.862,0-25.14,11.278-25.14,25.14c0,13.862,11.278,25.14,25.14,25.14s25.14-11.278,25.14-25.14
		C465.673,397.64,454.395,386.362,440.533,386.362z"/>
	<rect x="368.215" y="370.371" style="fill:#333333;" width="18.799" height="125.011"/>
	<rect x="349.241" y="402.103" style="fill:#333333;" width="56.747" height="18.799"/>
</g>
<g>
</g>
<g>
</g>
<g>
</g>
<g>
</g>
<g>
</g>
<g>
</g>
<g>
</g>
<g>
</g>
<g>
</g>
<g>
</g>
<g>
</g>
<g>
</g>
<g>
</g>
<g>
</g>
<g>
</g>
</svg>
