<?xml version="1.0" encoding="iso-8859-1"?>
<!-- Generator: Adobe Illustrator 19.0.0, SVG Export Plug-In . SVG Version: 6.00 Build 0)  -->
<svg version="1.1" id="Layer_1" xmlns="http://www.w3.org/2000/svg" xmlns:xlink="http://www.w3.org/1999/xlink" x="0px" y="0px"
	 viewBox="0 0 511.999 511.999" style="enable-background:new 0 0 511.999 511.999;" xml:space="preserve">
<path style="fill:#48AEE2;" d="M367.762,486.644l-98.378-170.395c-5.961-10.324-0.071-23.46,11.571-25.905
	c39.687-8.337,72.319-35.883,87.289-73.687c5.38-13.587,24.139-14.99,31.461-2.309l109.912,190.384
	c7.441,12.888-3.632,28.648-18.289,25.999l-68.417-12.37l-23.488,65.441C394.411,497.765,375.255,499.625,367.762,486.644z"/>
<path style="fill:#8DC3E9;" d="M112.577,483.803l-23.488-65.441l-68.417,12.37c-14.646,2.647-25.736-13.1-18.289-25.999
	L112.295,214.35c7.322-12.682,26.081-11.277,31.461,2.309c14.97,37.803,47.602,65.35,87.289,73.687
	c11.667,2.45,17.519,15.603,11.571,25.905l-98.378,170.395C136.762,499.594,117.599,497.795,112.577,483.803z"/>
<path style="fill:#FFD155;" d="M255.999,327.945c-125.153,0-198.852-140.011-128.732-243.185
	C189.05-6.15,322.989-6.103,384.746,84.768C455.167,188.388,380.773,327.945,255.999,327.945z"/>
<path style="fill:#FFBE00;" d="M384.745,84.768C353.872,39.34,304.959,16.61,256.04,16.596v311.349
	C380.789,327.913,455.159,188.377,384.745,84.768z"/>
<path style="fill:#FFE49C;" d="M293.188,257.534L256,237.983l-37.188,19.551c-12.828,6.745-27.871-4.18-25.42-18.469l7.102-41.409
	L170.41,168.33c-10.376-10.115-4.639-27.798,9.709-29.882l41.577-6.042L240.29,94.73c6.413-12.995,25.004-13.003,31.421,0
	l18.593,37.675l41.577,6.042c14.34,2.084,20.092,19.761,9.71,29.882l-30.086,29.326l7.102,41.409
	C321.063,253.38,305.974,264.259,293.188,257.534z"/>
<path style="fill:#FFD155;" d="M331.881,138.448l-41.577-6.042l-18.593-37.675c-3.201-6.487-9.432-9.734-15.671-9.748v153.021
	l37.148,19.53c12.786,6.725,27.875-4.156,25.42-18.469l-7.102-41.409l30.086-29.325
	C351.973,158.209,346.221,140.532,331.881,138.448z"/>
<g>
</g>
<g>
</g>
<g>
</g>
<g>
</g>
<g>
</g>
<g>
</g>
<g>
</g>
<g>
</g>
<g>
</g>
<g>
</g>
<g>
</g>
<g>
</g>
<g>
</g>
<g>
</g>
<g>
</g>
</svg>
